<svg width="2276" height="2276" viewBox="0 0 2276 2276" fill="none" xmlns="http://www.w3.org/2000/svg">
<mask id="path-1-inside-1_317_45" fill="white">
<path fill-rule="evenodd" clip-rule="evenodd" d="M471.221 1932.88C910.161 2301.2 1564.57 2243.95 1932.88 1805.01C2085.69 1622.89 2165.25 1403.69 2174.68 1183.22C2147.6 1258.45 2107.11 1330.12 2052.88 1394.76C1801.54 1694.29 1350.16 1729.33 1044.7 1473.02C739.241 1216.71 695.369 766.107 946.711 466.57C1122.74 256.784 1396.89 176.737 1650.32 235.656C1223.24 -7.38693 670.456 81.3821 343.342 471.221C-24.9726 910.161 32.2808 1564.57 471.221 1932.88ZM406.942 2009.49C888.189 2413.3 1605.67 2350.53 2009.49 1869.28C2413.3 1388.04 2350.53 670.553 1869.28 266.738C1388.04 -137.077 670.552 -74.3048 266.737 406.943C-137.077 888.19 -74.3054 1605.67 406.942 2009.49ZM1291.48 1503.79C1530.61 1594.68 1807.22 1531.95 1976.27 1330.48C2190.93 1074.65 2155.18 686.911 1890.61 464.907C1626.04 242.904 1237.98 275.026 1023.32 530.849C929.569 642.571 883.582 779.455 883.556 916.706C900.835 856.779 930.637 799.41 973.308 748.556C1136.79 553.73 1427.25 528.318 1622.08 691.796C1816.9 855.275 1842.31 1145.74 1678.83 1340.56C1579.81 1458.57 1434.21 1514.42 1291.48 1503.79Z"/>
</mask>
<path fill-rule="evenodd" clip-rule="evenodd" d="M471.221 1932.88C910.161 2301.2 1564.57 2243.95 1932.88 1805.01C2085.69 1622.89 2165.25 1403.69 2174.68 1183.22C2147.6 1258.45 2107.11 1330.12 2052.88 1394.76C1801.54 1694.29 1350.16 1729.33 1044.7 1473.02C739.241 1216.71 695.369 766.107 946.711 466.57C1122.74 256.784 1396.89 176.737 1650.32 235.656C1223.24 -7.38693 670.456 81.3821 343.342 471.221C-24.9726 910.161 32.2808 1564.57 471.221 1932.88ZM406.942 2009.49C888.189 2413.3 1605.67 2350.53 2009.49 1869.28C2413.3 1388.04 2350.53 670.553 1869.28 266.738C1388.04 -137.077 670.552 -74.3048 266.737 406.943C-137.077 888.19 -74.3054 1605.67 406.942 2009.49ZM1291.48 1503.79C1530.61 1594.68 1807.22 1531.95 1976.27 1330.48C2190.93 1074.65 2155.18 686.911 1890.61 464.907C1626.04 242.904 1237.98 275.026 1023.32 530.849C929.569 642.571 883.582 779.455 883.556 916.706C900.835 856.779 930.637 799.41 973.308 748.556C1136.79 553.73 1427.25 528.318 1622.08 691.796C1816.9 855.275 1842.31 1145.74 1678.83 1340.56C1579.81 1458.57 1434.21 1514.42 1291.48 1503.79Z" fill="#8019E8"/>
<path d="M1932.88 1805.01L1856.28 1740.73L1932.88 1805.01ZM471.221 1932.88L535.5 1856.28L535.499 1856.28L471.221 1932.88ZM2174.68 1183.22L2274.59 1187.5L2080.59 1149.35L2174.68 1183.22ZM2052.88 1394.76L1976.27 1330.48L2052.88 1394.76ZM1044.7 1473.02L980.422 1549.63L980.422 1549.63L1044.7 1473.02ZM946.711 466.57L1023.32 530.849L1023.32 530.849L946.711 466.57ZM1650.32 235.656L1627.67 333.058L1699.78 148.744L1650.32 235.656ZM343.342 471.221L419.946 535.5L419.946 535.5L343.342 471.221ZM2009.49 1869.28L2086.09 1933.56L2009.49 1869.28ZM406.942 2009.49L342.663 2086.09L342.663 2086.09L406.942 2009.49ZM1869.28 266.738L1933.56 190.134L1869.28 266.738ZM266.737 406.943L190.133 342.664L190.133 342.664L266.737 406.943ZM1976.27 1330.48L1899.67 1266.2L1976.27 1330.48ZM1291.48 1503.79L1298.91 1404.07L1255.95 1597.27L1291.48 1503.79ZM1890.61 464.907L1954.89 388.303L1890.61 464.907ZM1023.32 530.849L946.711 466.57L946.711 466.57L1023.32 530.849ZM883.556 916.706L783.556 916.687L979.642 944.41L883.556 916.706ZM973.308 748.556L896.704 684.277L973.308 748.556ZM1678.83 1340.56L1602.23 1276.28L1602.23 1276.28L1678.83 1340.56ZM1856.28 1740.73C1523.47 2137.36 932.132 2189.09 535.5 1856.28L406.942 2009.49C888.189 2413.3 1605.67 2350.53 2009.49 1869.28L1856.28 1740.73ZM2074.78 1178.94C2066.25 1378.17 1994.43 1576.08 1856.28 1740.73L2009.49 1869.28C2176.96 1669.7 2264.25 1429.22 2274.59 1187.5L2074.78 1178.94ZM2129.48 1459.03C2191.42 1385.22 2237.77 1303.22 2268.77 1217.09L2080.59 1149.35C2057.44 1213.68 2022.81 1275.02 1976.27 1330.48L2129.48 1459.03ZM980.422 1549.63C1326.77 1840.25 1841.46 1802.29 2129.48 1459.03L1976.27 1330.48C1761.61 1586.3 1373.55 1618.42 1108.98 1396.42L980.422 1549.63ZM870.106 402.291C582.084 745.542 634.076 1259.01 980.422 1549.63L1108.98 1396.42C844.406 1174.41 808.655 786.671 1023.32 530.849L870.106 402.291ZM1672.96 138.253C1385.05 71.3155 1071.76 161.975 870.106 402.291L1023.32 530.849C1173.73 351.593 1408.74 282.158 1627.67 333.058L1672.96 138.253ZM419.946 535.5C715.463 183.318 1215 102.982 1600.86 322.568L1699.78 148.744C1231.48 -117.756 625.449 -20.5534 266.737 406.943L419.946 535.5ZM535.499 1856.28C138.867 1523.47 87.132 932.133 419.946 535.5L266.738 406.943C-137.077 888.19 -74.3054 1605.67 406.942 2009.49L535.499 1856.28ZM1932.88 1805.01C1564.57 2243.95 910.161 2301.2 471.221 1932.88L342.663 2086.09C866.218 2525.41 1646.78 2457.12 2086.09 1933.56L1932.88 1805.01ZM1805.01 343.342C2243.94 711.657 2301.2 1366.07 1932.88 1805.01L2086.09 1933.56C2525.41 1410.01 2457.12 629.448 1933.56 190.134L1805.01 343.342ZM343.342 471.221C711.656 32.2814 1366.07 -24.9719 1805.01 343.342L1933.56 190.134C1410.01 -249.181 629.448 -180.891 190.133 342.664L343.342 471.221ZM471.221 1932.88C32.2808 1564.57 -24.9726 910.161 343.342 471.221L190.133 342.664C-249.182 866.219 -180.892 1646.78 342.663 2086.09L471.221 1932.88ZM1899.67 1266.2C1759.43 1433.33 1528.52 1486.9 1327.01 1410.32L1255.95 1597.27C1532.71 1702.45 1855.01 1630.56 2052.88 1394.76L1899.67 1266.2ZM1826.33 541.512C2049.95 729.149 2077.71 1054.02 1899.67 1266.2L2052.88 1394.76C2304.16 1095.29 2260.42 644.673 1954.89 388.303L1826.33 541.512ZM1099.92 595.127C1277.96 382.951 1602.71 353.875 1826.33 541.512L1954.89 388.303C1649.36 131.933 1197.99 167.102 946.711 466.57L1099.92 595.127ZM983.556 916.724C983.578 801.867 1021.98 688.012 1099.92 595.127L946.711 466.57C837.157 597.13 783.586 757.043 783.556 916.687L983.556 916.724ZM979.642 944.41C993.127 897.643 1016.39 852.787 1049.91 812.835L896.704 684.277C844.885 746.033 808.543 815.916 787.471 889.001L979.642 944.41ZM1049.91 812.835C1177.89 660.316 1405.28 640.423 1557.8 768.401L1686.35 615.192C1449.22 416.213 1095.68 447.144 896.704 684.277L1049.91 812.835ZM1557.8 768.401C1710.31 896.379 1730.21 1123.77 1602.23 1276.28L1755.44 1404.84C1954.42 1167.71 1923.49 814.17 1686.35 615.192L1557.8 768.401ZM1602.23 1276.28C1524.76 1368.61 1410.93 1412.41 1298.91 1404.07L1284.05 1603.52C1457.48 1616.43 1634.87 1548.53 1755.44 1404.84L1602.23 1276.28Z" fill="#8019E8" mask="url(#path-1-inside-1_317_45)"/>
</svg>
